<svg xmlns="http://www.w3.org/2000/svg" version="1.1" xmlns:xlink="http://www.w3.org/1999/xlink" xmlns:svgjs="http://svgjs.dev/svgjs" width="100%" height="100%" viewBox="0 0 1000 600"><rect width="1000" height="600" x="0" y="0" fill="#000000"/><g><rect width="333.3333333333333" height="333.3333333333333" rx="13.333333333333334" ry="13.333333333333334" y="254.61402911457333" fill="#0000" transform="matrix(0.537884828576817,0,0,0.537884828576817,0,73.39952921132242)" x="232.39175415039062"/><path d="M400.02277160053177 496.28069667925695Q385.4991017504175 496.28069667925695 374.01459017879796 491.1375057464197Q362.5593012829331 485.99431481358243 356.04264458962234 476.81839462658877Q349.52598789631145 467.67169711534973 349.29220649027343 455.6904000558993L349.29220649027343 455.6904000558993L369.71885684284865 455.6904000558993Q370.7708731700199 466.00600459732857 378.22265548748294 473.04866945422503Q385.7036604807008 480.0913343111215 400.02277160053177 480.0913343111215L400.02277160053177 480.0913343111215Q413.6989838537581 480.0913343111215 421.5891063075425 473.2532281845083Q429.4792287613269 466.4151220578952 429.4792287613269 455.6904000558993L429.4792287613269 455.6904000558993Q429.4792287613269 447.2742694385293 424.83282331632057 442.014187802673Q420.2156405470689 436.7541061668167 413.2606437174367 434.00717464586955Q406.3348695635593 431.28946580067714 394.52890855863745 428.13341681916336L394.52890855863745 428.13341681916336Q380.0344613842779 424.33446897104494 371.29688133360554 420.5355211229265Q362.5593012829331 416.76579595056285 356.36409402292463 408.6711147664951Q350.13966408716135 400.54721090667266 350.13966408716135 386.87099865344635L350.13966408716135 386.87099865344635Q350.13966408716135 374.88970159399594 356.2472033199056 365.6261133797379Q362.35474255264984 356.3625251654799 373.40091398794806 351.3362249356617Q384.4470854232462 346.2807020300887 398.7369738673225 346.2807020300887L398.7369738673225 346.2807020300887Q419.368182950181 346.2807020300887 432.5183870398217 356.59630657151797Q445.66859112946236 366.8826884371924 447.3635063232383 383.9487310779706L447.3635063232383 383.9487310779706L426.3231797798132 383.9487310779706Q425.27116345264193 375.5326004606005 417.46870902612176 369.103611794554Q409.6954772753564 362.67462312850745 396.866722619018 362.67462312850745L396.866722619018 362.67462312850745Q384.85620288381284 362.67462312850745 377.28752986333075 368.8990530642707Q369.71885684284865 375.0942603242792 369.71885684284865 386.25732246259645L369.71885684284865 386.25732246259645Q369.71885684284865 394.2351129436451 374.24837158483604 399.2906358492181Q378.74866365106857 404.3461587547911 385.38221104739847 406.9761995727192Q392.0157584437283 409.6062403906474 403.99705550317873 412.96684810244443L403.99705550317873 412.96684810244443Q418.520725353293 416.9703546808461 427.37519610698445 420.8569705562288Q436.2004441849211 424.74358643161156 442.51254214794864 432.867490291434Q448.82464011097613 440.96217147550175 448.82464011097613 454.8429424590114L448.82464011097613 454.8429424590114Q448.82464011097613 465.5676644610072 443.1554410145533 475.03581140554854Q437.4570192423756 484.5039583500899 426.3231797798132 490.40693885255075Q415.16011764149596 496.28069667925695 400.02277160053177 496.28069667925695L400.02277160053177 496.28069667925695Z " fill="#b8831c" transform="matrix(0.537884828576817,0,0,0.537884828576817,0,73.39952921132242)"/><path d="M697.3432361290032 495.86349257576603Q683.519761332389 495.86349257576603 672.5889251250057 490.96825804014406Q661.6859027502114 486.07302350452204 655.4834180829176 477.3394800716511Q649.2809334156238 468.6337504713688 649.0584227549139 457.2300791099767L649.0584227549139 457.2300791099767L668.500291734458 457.2300791099767Q669.5015897076532 467.0483620138094 676.5941170177873 473.75149566770085Q683.7144581605103 480.4546293215923 697.3432361290032 480.4546293215923L697.3432361290032 480.4546293215923Q710.3601097805436 480.4546293215923 717.869844579509 473.9461924958222Q725.3795793784745 467.43775567005207 725.3795793784745 457.2300791099767L725.3795793784745 457.2300791099767Q725.3795793784745 449.21969532441346 720.9571799968614 444.21320545843645Q716.5625944478372 439.20671559245943 709.942902291712 436.5922153291159Q703.3510239681757 434.0055288983611 692.1142356023162 431.00163497877486L692.1142356023162 431.00163497877486Q678.3185746382906 427.38583674223594 670.002238694251 423.77003850569696Q661.6859027502114 420.18205410174676 655.789370241394 412.47762247465994Q649.8650238999878 404.7453770149843 649.8650238999878 391.7285033634441L649.8650238999878 391.7285033634441Q649.8650238999878 380.32483200205195 655.678114911039 371.50784707141463Q661.4912059220901 362.6908621407773 672.0048346406418 357.90688293551045Q682.5184633591934 353.09508989765476 696.1194274950977 353.09508989765476L696.1194274950977 353.09508989765476Q715.7559933027632 353.09508989765476 728.2722179677057 362.91337280148747Q740.7884426326482 372.70384187273135 742.4016449227964 388.94712010456794L742.4016449227964 388.94712010456794L722.3756854588884 388.94712010456794Q721.374387485693 380.9367363190047 713.9480941844937 374.81769314947724Q706.5496147158832 368.6986499799498 694.339342209417 368.6986499799498L694.339342209417 368.6986499799498Q682.9078570154362 368.6986499799498 675.704074374947 374.6229963213559Q668.500291734458 380.5195288301733 668.500291734458 391.14441287908005L668.500291734458 391.14441287908005Q668.500291734458 398.7375891758119 672.8114357857158 403.54938221366757Q677.0947660043851 408.36117525152326 683.4085060020338 410.8644201845118Q689.7222459996826 413.3676651175003 701.1259173610748 416.56625586520784L701.1259173610748 416.56625586520784Q714.9493921576891 420.3767509298681 723.3769834320838 424.07599066417333Q731.7767608738897 427.7752303984786 737.7845487130621 435.5074758581542Q743.7923365522345 443.21190748524106 743.7923365522345 456.42347796490264L743.7923365522345 456.42347796490264Q743.7923365522345 466.631154524978 738.3964530300148 475.64283628373664Q732.9727556752064 484.6545180424953 722.3756854588884 490.272912225425Q711.7508014099816 495.86349257576603 697.3432361290032 495.86349257576603L697.3432361290032 495.86349257576603ZM821.5041848052333 399.73888714900727L792.8559372388092 399.73888714900727L792.8559372388092 464.43386175046584Q792.8559372388092 472.4442455360291 796.2492248146381 475.75409161409164Q799.6703262230558 479.06393769215424 808.0701036648617 479.06393769215424L808.0701036648617 479.06393769215424L821.5041848052333 479.06393769215424L821.5041848052333 494.472800946328L805.0662097452754 494.472800946328Q789.8520433192231 494.472800946328 782.2310531899025 487.46371513396014Q774.6378768931706 480.4546293215923 774.6378768931706 464.43386175046584L774.6378768931706 464.43386175046584L774.6378768931706 399.73888714900727L760.4250084403137 399.73888714900727L760.4250084403137 384.7194175510762L774.6378768931706 384.7194175510762L774.6378768931706 357.1002817904364L792.8559372388092 357.1002817904364L792.8559372388092 384.7194175510762L821.5041848052333 384.7194175510762L821.5041848052333 399.73888714900727ZM836.7183512312856 439.20671559245943Q836.7183512312856 422.3793468762589 843.5327402155322 409.66842538319503Q850.3193153671899 396.95750389013114 862.2514495477684 389.94841807776334Q874.1557698957582 382.93933226539554 888.7858458374467 382.93933226539554L888.7858458374467 382.93933226539554Q903.1934111184249 382.93933226539554 913.8182951673317 389.14181693268927Q924.4153653836497 395.344301599983 929.6443659103369 404.7453770149843L929.6443659103369 404.7453770149843L929.6443659103369 384.7194175510762L948.0571230840968 384.7194175510762L948.0571230840968 494.472800946328L929.6443659103369 494.472800946328L929.6443659103369 474.0574478261772Q924.2206685555285 483.65322006929983 913.5123430088554 489.9669600669487Q902.8040174621823 496.28070006459745 888.5911490093252 496.28070006459745L888.5911490093252 496.28070006459745Q873.9610730676369 496.28070006459745 862.1401942174134 489.0769174241083Q850.3193153671899 481.8453209510304 843.5327402155322 468.8284472994901Q836.7183512312856 455.8115736479499 836.7183512312856 439.20671559245943L836.7183512312856 439.20671559245943ZM929.6443659103369 439.40141242058075Q929.6443659103369 426.9964430859933 924.6378760443598 417.76225066652455Q919.6313861783827 408.5558720796446 911.1203534062219 403.6606375440226Q902.609320634061 398.7375891758119 892.3738302413968 398.7375891758119L892.3738302413968 398.7375891758119Q882.1661536813215 398.7375891758119 873.7663762395156 403.54938221366757Q865.3387849651209 408.36117525152326 860.332295099144 417.5675538384032Q855.325805233167 426.7739324252832 855.325805233167 439.20671559245943L855.325805233167 439.20671559245943Q855.325805233167 451.8063817551682 860.332295099144 461.1240156724033Q865.3387849651209 470.44164958963825 873.7663762395156 475.3368841252602Q882.1661536813215 480.25993249347096 892.3738302413968 480.25993249347096L892.3738302413968 480.25993249347096Q902.609320634061 480.25993249347096 911.1203534062219 475.3368841252602Q919.6313861783827 470.44164958963825 924.6378760443598 461.1240156724033Q929.6443659103369 451.8063817551682 929.6443659103369 439.40141242058075L929.6443659103369 439.40141242058075ZM997.1207237706716 402.5480842404722Q1001.9325168085273 393.1470088254709 1010.8329432369309 387.94582213137255Q1019.7611834979232 382.71682160468544 1032.5555464887534 382.71682160468544L1032.5555464887534 382.71682160468544L1032.5555464887534 401.5467862672768L1027.7715672834865 401.5467862672768Q997.1207237706716 401.5467862672768 997.1207237706716 434.7843162108464L997.1207237706716 434.7843162108464L997.1207237706716 494.472800946328L978.902663425033 494.472800946328L978.902663425033 384.7194175510762L997.1207237706716 384.7194175510762L997.1207237706716 402.5480842404722ZM1044.9883296559296 354.9029890159242L1139.4997327925403 354.9029890159242L1139.4997327925403 369.69994795314517L1101.450409811115 369.69994795314517L1101.450409811115 494.472800946328L1083.232349465476 494.472800946328L1083.232349465476 369.69994795314517L1044.9883296559296 369.69994795314517L1044.9883296559296 354.9029890159242ZM1180.1635560373093 402.5480842404722Q1184.9753490751648 393.1470088254709 1193.8757755035683 387.94582213137255Q1202.776201931972 382.71682160468544 1215.598378755391 382.71682160468544L1215.598378755391 382.71682160468544L1215.598378755391 401.5467862672768L1210.7865857175352 401.5467862672768Q1180.1635560373093 401.5467862672768 1180.1635560373093 434.7843162108464L1180.1635560373093 434.7843162108464L1180.1635560373093 494.472800946328L1161.9454956916704 494.472800946328L1161.9454956916704 384.7194175510762L1180.1635560373093 384.7194175510762L1180.1635560373093 402.5480842404722ZM1229.811247208248 439.20671559245943Q1229.811247208248 422.3793468762589 1236.6256361924943 409.66842538319503Q1243.440025176741 396.95750389013114 1255.3443455247307 389.94841807776334Q1267.2764797053092 382.93933226539554 1281.8787418144088 382.93933226539554L1281.8787418144088 382.93933226539554Q1296.3141209279756 382.93933226539554 1306.9111911442938 389.14181693268927Q1317.5360751932008 395.344301599983 1322.7372618872992 404.7453770149843L1322.7372618872992 404.7453770149843L1322.7372618872992 384.7194175510762L1341.1778328936475 384.7194175510762L1341.1778328936475 494.472800946328L1322.7372618872992 494.472800946328L1322.7372618872992 474.0574478261772Q1317.3413783650794 483.65322006929983 1306.6330528184062 489.9669600669487Q1295.8969134391446 496.28070006459745 1281.6840449862875 496.28070006459745L1281.6840449862875 496.28070006459745Q1267.0817828771878 496.28070006459745 1255.2609040269645 489.0769174241083Q1243.440025176741 481.8453209510304 1236.6256361924943 468.8284472994901Q1229.811247208248 455.8115736479499 1229.811247208248 439.20671559245943L1229.811247208248 439.20671559245943ZM1322.7372618872992 439.40141242058075Q1322.7372618872992 426.9964430859933 1317.730772021322 417.76225066652455Q1312.724282155345 408.5558720796446 1304.2132493831841 403.6606375440226Q1295.7022166110232 398.7375891758119 1285.4945400509478 398.7375891758119L1285.4945400509478 398.7375891758119Q1275.2868634908723 398.7375891758119 1266.8592722164776 403.54938221366757Q1258.4594947746718 408.36117525152326 1253.4530049086948 417.5675538384032Q1248.4465150427177 426.7739324252832 1248.4465150427177 439.20671559245943L1248.4465150427177 439.20671559245943Q1248.4465150427177 451.8063817551682 1253.4530049086948 461.1240156724033Q1258.4594947746718 470.44164958963825 1266.8592722164776 475.3368841252602Q1275.2868634908723 480.25993249347096 1285.4945400509478 480.25993249347096L1285.4945400509478 480.25993249347096Q1295.7022166110232 480.25993249347096 1304.2132493831841 475.3368841252602Q1312.724282155345 470.44164958963825 1317.730772021322 461.1240156724033Q1322.7372618872992 451.8063817551682 1322.7372618872992 439.40141242058075L1322.7372618872992 439.40141242058075ZM1378.6152515581202 384.7194175510762L1412.854079474885 477.6454322301274L1446.8982105635291 384.7194175510762L1466.340079543073 384.7194175510762L1423.2842666956708 494.472800946328L1402.0344985978572 494.472800946328L1358.9786857504546 384.7194175510762L1378.6152515581202 384.7194175510762ZM1584.4932403801308 435.3962205277992Q1584.4932403801308 440.59740722189747 1583.881336063178 446.4104982329486L1583.881336063178 446.4104982329486L1496.1565080782252 446.4104982329486Q1497.1578060514207 462.6259626321964 1507.2820411137295 471.74889972131007Q1517.4062761760388 480.8440229778349 1531.8138414570171 480.8440229778349L1531.8138414570171 480.8440229778349Q1543.6347203072405 480.8440229778349 1551.5338487624485 475.3368841252602Q1559.4607910502455 469.8297452726855 1562.6593817979533 460.62336668580554L1562.6593817979533 460.62336668580554L1582.26813377303 460.62336668580554Q1577.8735482240058 476.4494374288107 1564.6619777443439 486.3511618304097Q1551.4504072646823 496.28070006459745 1531.8138414570171 496.28070006459745L1531.8138414570171 496.28070006459745Q1516.1824675421335 496.28070006459745 1503.8887535379008 489.2716142522296Q1491.5672257010797 482.2625284398618 1484.5581398887116 469.3290962860878Q1477.549054076344 456.42347796490264 1477.549054076344 439.40141242058075L1477.549054076344 439.40141242058075Q1477.549054076344 422.3793468762589 1484.3634430605907 409.55717005284Q1491.1500182122481 396.7349932294211 1503.4715460490693 389.8371627474083Q1515.7930738858904 382.93933226539554 1531.8138414570171 382.93933226539554L1531.8138414570171 382.93933226539554Q1547.4452153719008 382.93933226539554 1559.4607910502455 389.72590741705324Q1571.4763667285906 396.54029640129977 1577.9848035543605 408.4724305818783Q1584.4932403801308 420.3767509298681 1584.4932403801308 435.3962205277992L1584.4932403801308 435.3962205277992ZM1565.6632757175394 431.5857254631389Q1565.6632757175394 421.18335207494215 1561.046179507805 413.67361727597665Q1556.4568971306594 406.1638824770111 1548.5299548428625 402.2421320819958Q1540.6308263876545 398.34819551956923 1531.007240311943 398.34819551956923L1531.007240311943 398.34819551956923Q1517.1837655153286 398.34819551956923 1507.4767379418508 407.16518045020655Q1497.7697103683731 415.9821653808438 1496.3790187389354 431.5857254631389L1496.3790187389354 431.5857254631389L1565.6632757175394 431.5857254631389ZM1608.5243917368207 346.2807009134082L1626.7424520824593 346.2807009134082L1626.7424520824593 494.472800946328L1608.5243917368207 494.472800946328L1608.5243917368207 346.2807009134082Z " fill="#ffff" transform="matrix(0.537884828576817,0,0,0.537884828576817,0,73.39952921132242)"/></g></svg>